<svg xmlns="http://www.w3.org/2000/svg" version="1.1" xmlns:xlink="http://www.w3.org/1999/xlink" xmlns:svgjs="http://svgjs.dev/svgjs" width="1500" height="1500" viewBox="0 0 1500 1500"><rect width="1500" height="1500" fill="#ffffff"></rect><g transform="matrix(0.6666666666666666,0,0,0.6666666666666666,250.33231416617463,270.0556005398111)"><svg viewBox="0 0 257 247" data-background-color="#ffa96a" preserveAspectRatio="xMidYMid meet" height="1441" width="1500" xmlns="http://www.w3.org/2000/svg" xmlns:xlink="http://www.w3.org/1999/xlink"><g id="tight-bounds" transform="matrix(1,0,0,1,-0.08540474070687765,-0.09999999999999432)"><svg viewBox="0 0 257.17080948141376 247.2" height="247.2" width="257.17080948141376"><g><svg viewBox="0 0 395.52 380.18523251981367" height="247.2" width="257.17080948141376"><g transform="matrix(1,0,0,1,0,228.84654956370954)"><svg viewBox="0 0 395.52 151.33868295610415" height="151.33868295610415" width="395.52"><g id="textblocktransform"><svg viewBox="0 0 395.52 151.33868295610415" height="151.33868295610415" width="395.52" id="textblock"><g><svg viewBox="0 0 395.52 83.43283399571996" height="83.43283399571996" width="395.52"><g transform="matrix(1,0,0,1,0,0)"><svg width="395.52" viewBox="2.6 -33.5 163.54 34.5" height="83.43283399571996" data-palette-color="#000000"><g class="wordmark-text-0" data-fill-palette-color="primary" id="text-0"><path d="M27.35-27Q27.1-28.85 24.6-30.65 22.1-32.45 19.25-32.45 16.4-32.45 14.6-31.65 12.8-30.85 11.7-29.5 10.6-28.15 9.9-26.05L9.9-26.05Q8.7-22.25 8.7-16.4L8.7-16.4Q8.7-7.9 9.8-5.2L9.8-5.2Q10.35-3.85 11.2-2.5L11.2-2.5Q12.85 0.05 16.75 0.05L16.75 0.05Q20.5 0.05 22.2-2.55L22.2-2.55Q24-5.25 24.4-8.8L24.4-8.8Q24.8-12.15 24.8-15.43 24.8-18.7 24.75-19.9L24.75-19.9Q24.95-19.9 25.6-19.9 26.25-19.9 27.9-20.65 29.55-21.4 29.9-23.1L29.9-23.1Q30.9-19.75 30.9-16.4L30.9-16.4Q30.9-9.05 27.18-4.03 23.45 1 16.75 1 10.05 1 6.33-4.03 2.6-9.05 2.6-16.65 2.6-24.25 6.63-28.88 10.65-33.5 17.75-33.5L17.75-33.5Q22.05-33.5 25.2-31.25 28.35-29 28.35-26.25L28.35-26.25Q28.35-24.55 27.28-23.45 26.2-22.35 24.8-22.35 23.4-22.35 22.4-23.2 21.4-24.05 21.4-25.45 21.4-26.85 22.18-27.65 22.95-28.45 24.05-28.45L24.05-28.45Q25.8-28.45 26.4-26.9L26.4-26.9Q26.55-26.5 26.9-26.5L26.9-26.5Q27.45-26.5 27.35-27L27.35-27ZM36-4.35L36-4.35Q36.85-2.25 39.2-1.1 41.55 0.05 44.67 0.05 47.8 0.05 50.25-1.7 52.7-3.45 52.7-6.75L52.7-6.75Q52.7-9.3 50.95-11 49.2-12.7 46.72-13.73 44.25-14.75 41.77-15.9 39.3-17.05 37.55-19.2 35.8-21.35 35.8-24.5L35.8-24.5Q35.8-28.65 38.72-31.08 41.65-33.5 45.82-33.5 50-33.5 52.45-31.73 54.9-29.95 54.9-27.25L54.9-27.25Q54.9-25.55 53.82-24.45 52.75-23.35 51.35-23.35 49.95-23.35 48.95-24.2 47.95-25.05 47.95-26.45 47.95-27.85 48.72-28.65 49.5-29.45 50.6-29.45L50.6-29.45Q52.35-29.45 52.95-27.9L52.95-27.9Q53.1-27.5 53.45-27.5L53.45-27.5Q54-27.5 53.9-28L53.9-28Q53.65-29.8 51.67-31.18 49.7-32.55 46.72-32.55 43.75-32.55 41.67-30.93 39.6-29.3 39.6-26.73 39.6-24.15 41.35-22.45 43.1-20.75 45.57-19.73 48.05-18.7 50.52-17.55 53-16.4 54.75-14.25 56.5-12.1 56.5-8.95L56.5-8.95Q56.5-4.15 53-1.58 49.5 1 45.07 1 40.65 1 37.67-0.98 34.7-2.95 34.7-6.35L34.7-6.35Q34.7-8.05 35.77-9.15 36.85-10.25 38.25-10.25 39.65-10.25 40.65-9.4 41.65-8.55 41.65-7.15 41.65-5.75 40.87-4.95 40.1-4.15 39-4.15L39-4.15Q37.2-4.15 36.6-5.7L36.6-5.7Q36.45-6.1 36.05-6.1 35.65-6.1 35.65-5.7 35.65-5.3 36-4.35ZM89.75-32.5L98.85-32.5 98.85-31.7 94.7-31.7 94.7-0.8 98.85-0.8 98.85 0 85.85 0 85.85-0.8 89.5-0.8 89.5-29.4 89.15-29.4 76.45-7.85Q76.3-7.7 75.85-6.85L75.85-6.85Q75-5.3 75-4.28 75-3.25 75.47-2.55 75.95-1.85 76.7-1.85L76.7-1.85Q78.15-1.85 78.15-3.4L78.15-3.4Q78.15-4.35 77.4-5.85L77.4-5.85 66.3-29.4 65.95-29.4 65.95-7.15Q65.95-3.5 67.32-2.15 68.7-0.8 72.35-0.8L72.35-0.8 72.7-0.8 72.7 0 58.4 0 58.4-0.8Q62.05-0.8 63.5-2.18 64.95-3.55 64.95-7.15L64.95-7.15 64.95-29.7Q64.85-30.9 64.02-31.33 63.2-31.75 61.7-31.75L61.7-31.75 59.45-31.75 59.45-32.5 70.8-32.5 80.75-10.8Q83.05-6.2 83.05-4.33 83.05-2.45 81.77-1.4 80.5-0.35 78.62-0.35 76.75-0.35 75.42-1.35 74.1-2.35 74.1-4.45L74.1-4.45Q74.1-5.2 74.25-5.58 74.4-5.95 74.45-6.1 74.5-6.25 74.65-6.55L74.65-6.55 74.9-7Q75.15-7.55 75.35-7.85L75.35-7.85Q75.95-8.75 76.15-9.15L76.15-9.15 89.75-32.5ZM115.14-26.3L108.64-7.4Q108.09-5.9 108.09-4.48 108.09-3.05 108.62-2.3 109.14-1.55 110.29-1.25L110.29-1.25Q112.04-0.8 114.94-0.8L114.94-0.8 115.79-0.8 115.79 0 100.99 0 100.99-0.8Q103.64-0.8 105.02-2.27 106.39-3.75 107.44-6.9L107.44-6.9 115.59-30.45Q115.94-31.55 116.24-32.1L116.24-32.1Q116.94-33.5 118.54-33.5L118.54-33.5 118.69-33.5 128.79-0.8 132.34-0.8 132.34 0 119.54 0 119.54-0.8 123.24-0.8 115.44-26.3 115.14-26.3ZM107.44-17.8Q109.59-17.8 112.12-16.45 114.64-15.1 116.54-12.9L116.54-12.9Q120.34-8.65 122.29-3.95L122.29-3.95 123.09-4.15Q120.44-10.9 116.07-14.8 111.69-18.7 106.99-18.7L106.99-18.7Q104.39-18.7 102.72-17.25 101.04-15.8 101.04-13.98 101.04-12.15 102.12-11.05 103.19-9.95 104.57-9.95 105.94-9.95 106.94-10.85 107.94-11.75 107.94-13.15 107.94-14.55 107.19-15.3 106.44-16.05 105.34-16.05L105.34-16.05Q103.59-16.05 102.99-14.5L102.99-14.5Q102.84-14.1 102.49-14.1L102.49-14.1Q101.99-14.1 102.09-14.6L102.09-14.6Q102.29-16.1 103.79-16.95 105.29-17.8 107.44-17.8ZM159.59-25.35L159.59-25.35 159.59 0.35 158.79 0.35Q157.14 0.35 156.12-0.7 155.09-1.75 153.39-4.7L153.39-4.7 140.19-27.4 139.99-27.4 139.99-4Q139.99-1.6 138.74-0.3 137.49 1 135.67 1 133.84 1 132.74-0.08 131.64-1.15 131.64-2.55 131.64-3.95 132.49-4.95 133.34-5.95 134.74-5.95 136.14-5.95 136.94-5.18 137.74-4.4 137.74-3.3L137.74-3.3Q137.74-1.6 136.19-1L136.19-1Q135.79-0.85 135.79-0.45 135.79-0.05 136.52-0.05 137.24-0.05 138.12-1.03 138.99-2 138.99-4L138.99-4 138.99-29.45Q137.64-31.75 133.74-31.75L133.74-31.75 133.74-32.5 138.94-32.5Q141.34-32.5 142.56-31.68 143.79-30.85 145.04-28.75L145.04-28.75 158.29-6 158.59-6 158.59-25.35Q158.59-29 157.22-30.35 155.84-31.7 152.19-31.7L152.19-31.7 151.84-31.7 151.84-32.5 166.14-32.5 166.14-31.7Q162.49-31.7 161.04-30.33 159.59-28.95 159.59-25.35Z" fill="#000000" data-fill-palette-color="primary"></path></g></svg></g></svg></g><g transform="matrix(1,0,0,1,0,103.12932371409354)"><svg viewBox="0 0 395.52 48.2093592420106" height="48.2093592420106" width="395.52"><g transform="matrix(1,0,0,1,0,0)"><svg width="395.52" viewBox="4.85 -37.48 311.33 37.959999999999994" height="48.2093592420106" data-palette-color="#000000"><path d="M15.25 0.28Q9.93 0.28 4.85-0.38L4.85-0.38 4.85-36.2Q7.4-36.75 10.41-37.05 13.43-37.35 16.18-37.35L16.18-37.35Q26.4-37.35 31.63-32.64 36.85-27.93 36.85-18.5L36.85-18.5Q36.85-8.95 31.46-4.34 26.08 0.28 15.25 0.28L15.25 0.28ZM16.1-3.3Q24.38-3.3 28.41-7.01 32.45-10.73 32.45-18.53L32.45-18.53Q32.45-26.3 28.41-30.05 24.38-33.8 16.2-33.8L16.2-33.8Q13.03-33.8 9.13-33.18L9.13-33.18 9.13-3.73Q12.1-3.3 16.1-3.3L16.1-3.3ZM49.05-17.28L49.05-3.45 70.85-3.45 70.85 0 44.8 0 44.8-37 70.6-37 70.6-33.55 49.05-33.55 49.05-20.7 68.05-20.7 68.05-17.28 49.05-17.28ZM91.67-3.23L105.27-37 109.57-37 94.6 0 88.5 0 73.5-37 78.1-37 91.67-3.23ZM119.14-17.28L119.14-3.45 140.94-3.45 140.94 0 114.89 0 114.89-37 140.69-37 140.69-33.55 119.14-33.55 119.14-20.7 138.14-20.7 138.14-17.28 119.14-17.28ZM173.37 0L148.34 0 148.34-37 152.62-37 152.62-3.55 173.37-3.55 173.37 0ZM193.31 0.48Q187.96 0.48 184.03-1.61 180.09-3.7 177.92-7.95 175.76-12.2 175.76-18.5L175.76-18.5Q175.76-24.8 177.95-29.05 180.14-33.3 184.07-35.39 188.01-37.48 193.31-37.48L193.31-37.48Q198.66-37.48 202.6-35.39 206.54-33.3 208.7-29.05 210.86-24.8 210.86-18.5L210.86-18.5Q210.86-12.23 208.68-7.96 206.49-3.7 202.55-1.61 198.61 0.48 193.31 0.48L193.31 0.48ZM193.31-3.13Q199.51-3.13 202.99-6.85 206.46-10.58 206.46-18.38L206.46-18.38Q206.46-26.33 202.99-30.1 199.51-33.88 193.31-33.88L193.31-33.88Q187.14-33.88 183.65-30.15 180.16-26.43 180.16-18.63L180.16-18.63Q180.16-10.63 183.63-6.88 187.09-3.13 193.31-3.13L193.31-3.13ZM218.84 0L218.84-36.33Q221.69-36.88 224.25-37.14 226.81-37.4 229.66-37.4L229.66-37.4Q237.64-37.4 241.67-34.34 245.71-31.28 245.71-24.83L245.71-24.83Q245.71-18.55 241.62-15.34 237.54-12.13 228.99-12.13L228.99-12.13Q226.46-12.13 223.11-12.4L223.11-12.4 223.11 0 218.84 0ZM229.01-15.43Q233.46-15.43 236.21-16.45 238.96-17.48 240.22-19.54 241.49-21.6 241.49-24.8L241.49-24.8Q241.49-29.6 238.64-31.85 235.79-34.1 229.94-34.1L229.94-34.1Q226.26-34.1 223.11-33.52L223.11-33.52 223.11-15.8Q225.96-15.43 229.01-15.43L229.01-15.43ZM257.28-17.28L257.28-3.45 279.08-3.45 279.08 0 253.03 0 253.03-37 278.83-37 278.83-33.55 257.28-33.55 257.28-20.7 276.28-20.7 276.28-17.28 257.28-17.28ZM316.18 0L311.28 0 298.81-15.28Q298.23-15.25 297.03-15.25L297.03-15.25Q294.43-15.25 290.7-15.55L290.7-15.55 290.7 0 286.48 0 286.48-36.2Q292.2-37.4 297.65-37.4L297.65-37.4Q303.03-37.4 306.48-36.26 309.93-35.13 311.64-32.7 313.36-30.28 313.36-26.4L313.36-26.4Q313.36-22.05 310.81-19.39 308.25-16.73 303.25-15.78L303.25-15.78 316.18 0ZM290.7-33.45L290.7-18.88Q292.58-18.7 293.92-18.63 295.25-18.55 297.18-18.55L297.18-18.55Q303.53-18.55 306.42-20.45 309.31-22.35 309.31-26.33L309.31-26.33Q309.31-29.2 308.12-30.9 306.93-32.6 304.45-33.35 301.98-34.1 297.9-34.1L297.9-34.1Q295.73-34.1 294.11-33.94 292.48-33.77 290.7-33.45L290.7-33.45Z" opacity="1" transform="matrix(1,0,0,1,0,0)" fill="#000000" class="slogan-text-1" data-fill-palette-color="secondary" id="text-1"></path></svg></g></svg></g></svg></g></svg></g><g transform="matrix(1,0,0,1,96.81759130995012,0)"><svg viewBox="0 0 201.88481738009975 209.15005984533596" height="209.15005984533596" width="201.88481738009975"><g><svg xmlns="http://www.w3.org/2000/svg" xml:space="preserve" viewBox="2.3179998363109537 0.783 85.36400016368904 88.43600016368903" x="0" y="0" height="209.15005984533596" width="201.88481738009975" class="icon-icon-0" data-fill-palette-color="accent" id="icon-0"><path d="M83.622 15.11l0.051-0.014L33.383 0.783l-19.3 4.869 49.808 15.302zM65.434 78.125l22.248-6.587V17.143l-22.248 6.589z m12.175-9.488c-1.174 0-2.125-1.191-2.125-2.66s0.951-2.662 2.125-2.662 2.127 1.192 2.127 2.662c0 1.468-0.953 2.66-2.127 2.66m-8.916-37.163l16.347-4.413v7.122l-16.347 4.412z m0 9.177l16.347-4.413v7.121l-16.347 4.413z m0 9.177l16.347-4.413v7.122L68.693 56.95zM87.682 74.275l-22.248 6.59v7.074l22.248-6.587zM9.877 7.604v26.648a14.7 14.7 0 0 1 6.942-1.738h2.509c8.144 0 14.771 6.626 14.771 14.771v4.816c3.028 1.297 5.155 4.308 5.155 7.806v20.922l23.078 7.091v-64.2z" fill="#000000" data-fill-palette-color="accent"></path><path d="M30.769 56.848h-2.095v-9.563c0-5.153-4.192-9.346-9.345-9.346H16.82c-5.153 0-9.345 4.192-9.345 9.346v9.563H5.379a3.06 3.06 0 0 0-3.061 3.06v26.25a3.06 3.06 0 0 0 3.061 3.061h25.39a3.06 3.06 0 0 0 3.06-3.061v-26.25a3.06 3.06 0 0 0-3.06-3.06m-9.848 24.32h-5.696l1.058-7.609a3.821 3.821 0 0 1 1.79-7.199 3.821 3.821 0 0 1 1.791 7.199z m1.463-24.32h-8.622v-9.563a3.06 3.06 0 0 1 3.056-3.057h2.509a3.06 3.06 0 0 1 3.056 3.057z" fill="#000000" data-fill-palette-color="accent"></path></svg></g></svg></g><g></g></svg></g><defs></defs></svg><rect width="257.17080948141376" height="247.2" fill="none" stroke="none" visibility="hidden"></rect></g></svg></g></svg>